# xmcd
#
# Track frame offsets:
#	150
#	20670
#	39695
#	56040
#	75110
#	92205
#	108810
#	124140
#	144290
#	166480
#	186340
#	208250
#	229060
#	244845
#	272270
#	291885
#
# Disc length: 4409 seconds
#
# Revision: 0
# Processed by: cddbd v1.5.2PL0 Copyright (c) Steve Scherf et al.
# Submitted via: EasyCDDAExtractor 10.0.2.1
#
DISCID=de113710
DTITLE=Robin Thicke - The Evolution Of Robin Thicke
DYEAR=2006
DGENRE=R&B
TTITLE0=Got 2 Be Down
TTITLE1=Complicated
TTITLE2=Would That Make U Love Me
TTITLE3=Lost Without U
TTITLE4=ASk Myself
TTITLE5=All Night Long
TTITLE6=Everything I Can't Have
TTITLE7=Teach U A Lesson
TTITLE8=I Need Love
TTITLE9=Wanna Love U Girl
TTITLE10=Can U Believe
TTITLE11=Shooter
TTITLE12=Cocaine
TTITLE13=2 The Sky
TTITLE14=Lonely World
TTITLE15=Angels
EXTD=
EXTT0=
EXTT1=
EXTT2=
EXTT3=
EXTT4=
EXTT5=
EXTT6=
EXTT7=
EXTT8=
EXTT9=
EXTT10=
EXTT11=
EXTT12=
EXTT13=
EXTT14=
EXTT15=
PLAYORDER=
